<?xml version="1.0" standalone="no"?>
<!DOCTYPE svg PUBLIC "-//W3C//DTD SVG 20010904//EN"
 "http://www.w3.org/TR/2001/REC-SVG-20010904/DTD/svg10.dtd">
<svg version="1.0" xmlns="http://www.w3.org/2000/svg"
 width="323.000000pt" height="319.000000pt" viewBox="0 0 323.000000 319.000000"
 preserveAspectRatio="xMidYMid meet">

<g transform="translate(0.000000,319.000000) scale(0.100000,-0.100000)"
fill="#000000" stroke="none">
<path d="M1395 3099 c-244 -31 -511 -139 -709 -286 -527 -393 -743 -1082 -540
-1718 14 -44 52 -134 85 -200 176 -358 479 -624 868 -759 168 -59 300 -80 491
-80 131 0 188 5 278 22 319 64 595 218 828 464 189 201 314 441 375 728 31
141 34 466 6 604 -36 176 -91 325 -180 481 l-51 90 -12 -95 c-10 -81 -15 -97
-38 -116 l-26 -23 30 -60 c83 -166 120 -342 120 -566 0 -325 -81 -573 -268
-822 -26 -34 -50 -63 -54 -63 -5 0 -8 260 -8 578 0 548 -1 580 -18 595 -16 14
-44 17 -178 17 -123 0 -165 -3 -180 -14 -18 -14 -19 -37 -24 -763 l-5 -748
-80 -32 -80 -32 -5 575 -5 576 -28 24 c-27 23 -35 24 -167 24 -76 0 -146 -3
-155 -6 -44 -17 -45 -29 -45 -662 0 -513 -2 -601 -14 -605 -8 -3 -47 -3 -85 0
l-71 6 0 472 c0 436 -1 474 -17 494 -17 20 -31 22 -175 28 -137 5 -160 4 -182
-11 l-26 -16 0 -425 c0 -286 -3 -425 -10 -425 -18 0 -112 50 -195 105 -113 73
-192 142 -273 237 -220 261 -322 539 -322 883 0 291 73 536 231 772 65 98 261
294 355 355 236 154 482 228 759 228 219 0 401 -43 589 -140 l98 -51 74 46
c40 25 76 50 79 55 9 14 -171 115 -284 161 -236 94 -505 129 -756 98z"/>
<path d="M2590 2859 c-74 -44 -195 -120 -269 -168 -123 -80 -136 -91 -136
-117 0 -26 8 -33 83 -72 l84 -44 -115 -116 c-63 -65 -183 -190 -267 -279 -84
-89 -159 -164 -167 -167 -31 -12 -51 -3 -142 64 -82 61 -99 70 -137 70 -38 0
-50 -6 -101 -53 -120 -110 -711 -653 -775 -713 -37 -34 -70 -74 -74 -88 -14
-58 49 -136 111 -136 42 0 62 17 342 281 416 392 481 449 511 449 18 0 58 -22
117 -66 50 -36 101 -70 115 -76 59 -23 81 -6 393 324 162 172 315 332 339 356
l45 43 84 -41 c105 -51 131 -50 141 5 13 73 9 600 -4 613 -22 22 -44 13 -178
-69z"/>
</g>
</svg>
